# AST/ASF file generated using VICON BodyLanguage
# -----------------------------------------------
:version 1.10
:name VICON
:units
  mass 1.0
  length 0.45
  angle deg
:documentation
   .ast/.asf automatically generated from VICON data using
   VICON BodyBuilder and BodyLanguage model FoxedUp or BRILLIANT.MOD
:root
   order TX TY TZ RX RY RZ
   axis XYZ
   position 0 0 0  
   orientation 0 0 0 
:bonedata
  begin
     id 1 
     name lhipjoint
     direction 0.541323 -0.757556 0.364798 
     length 2.47576 
     axis 0 0 0  XYZ
  end
  begin
     id 2 
     name lfemur
     direction 0.34202 -0.939693 0  
     length 7.46493  
     axis 0 0 20  XYZ
    dof rx ry rz
    limits (-160.0 20.0)
           (-70.0 70.0)
           (-60.0 70.0)
  end
  begin
     id 3 
     name ltibia
     direction 0.34202 -0.939693 0   
     length 7.73805   
     axis 0 0 20   XYZ
    dof rx
    limits (-10.0 170.0)
  end
  begin
     id 4 
     name lfoot
     direction 0.107174 -0.294458 0.949636   
     length 2.25864   
     axis -90 7.62852e-016 20   XYZ
    dof rx rz
    limits (-45.0 90.0)
           (-70.0 20.0)
  end
  begin
     id 5 
     name ltoes
     direction 1.53606e-011 -4.21934e-011 1   
     length 1.12451   
     axis -90 7.62852e-016 20   XYZ
    dof rx
    limits (-90.0 20.0)
  end
  begin
     id 6 
     name rhipjoint
     direction -0.524745 -0.766967 0.36933   
     length 2.44538  
     axis 0 0 0  XYZ 
  end
  begin
     id 7 
     name rfemur
     direction -0.34202 -0.939693 0   
     length 7.61604   
     axis 0 0 -20   XYZ
    dof rx ry rz
    limits (-160.0 20.0)
           (-70.0 70.0)
           (-70.0 60.0)
  end
  begin
     id 8 
     name rtibia
     direction -0.34202 -0.939693 0   
     length 7.61056   
     axis 0 0 -20   XYZ
    dof rx
    limits (-10.0 170.0)
 end
 begin
     id 9 
     name rfoot
     direction -0.12616 -0.346623 0.929482   
     length 2.46372  
     axis -90 -7.62852e-016 -20   XYZ
    dof rx rz
    limits (-45.0 90.0)
           (-20.0 70.0)
  end
  begin
     id 10 
     name rtoes
     direction -1.53531e-011 -4.22004e-011 1   
     length 1.21611   
     axis -90 -7.62852e-016 -20   XYZ
    dof rx
    limits (-90.0 20.0)
  end
  begin
     id 11 
     name lowerback
     direction -0.000778023 0.997293 -0.0735223   
     length 2.06139   
     axis 0 0 0   XYZ
    dof rx ry rz
    limits (-20.0 45.0)
           (-30.0 30.0)
           (-30.0 30.0)
  end
  begin
     id 12 
     name upperback
     direction 0.0222598 0.999722 -0.0078355   
     length 2.06383   
     axis 0 0 0   XYZ
    dof rx ry rz
    limits (-20.0 45.0)
           (-30.0 30.0)
           (-30.0 30.0)
  end
  begin
     id 13 
     name thorax
     direction 0.0219654 0.999405 0.0265994   
     length 2.07163   
     axis 0 0 0   XYZ
    dof rx ry rz
    limits (-20.0 45.0)
           (-30.0 30.0)
           (-30.0 30.0)
  end
  begin
     id 14 
     name lowerneck
     direction 0.0213282 0.988147 0.15202   
     length 1.75969   
     axis 0 0 0   XYZ
    dof rx ry rz
    limits (-20.0 45.0)
           (-30.0 30.0)
           (-30.0 30.0)
  end
  begin
     id 15 
     name upperneck
     direction -0.0546456 0.982624 -0.177379   
     length 1.79244   
     axis 0 0 0   XYZ
    dof rx ry rz
    limits (-20.0 45.0)
           (-30.0 30.0)
           (-30.0 30.0)
  end
  begin
     id 16
     name head
     direction -0.0199987 0.996855 -0.076686  
     length 1.80555  
     axis 0 0 0   XYZ
    dof rx ry rz
    limits (-20.0 45.0)
           (-30.0 30.0)
           (-30.0 30.0)
  end
  begin
     id 17 
     name lclavicle
     direction 0.929565 0.363219 -0.063096  
     length 3.55722  
     axis 0 0 0   XYZ
    dof ry rz
    limits (-20.0 10.0)
           (0.0 20.0)
  end
  begin
     id 18 
     name lhumerus
     direction 1 -4.48993e-011 -2.36203e-027   
     length 4.92785   
     axis 180 -30 -90   XYZ
    dof rx ry rz
    limits (-60.0 90.0)
           (-90.0 90.0)
           (-90.0 90.0)
  end
  begin
     id 19
     name lradius
     direction 1 -4.48947e-011 2.02997e-027   
     length 3.44052   
     axis 180 -30 -90   XYZ
    dof rx
    limits (-10.0 170.0)
  end
  begin
     id 20
     name lwrist
     direction 1 -4.48962e-011 1.45991e-027   
     length 1.72026   
     axis 1.49639e-024 90 90   XYZ
    dof ry
    limits (-180.0 0.0)
 end
  begin
     id 21 
     name lhand
     direction 1 -4.48984e-011 2.91906e-027   
     length 0.654326   
     axis -1.863e-015 90 90   XYZ
    dof rx rz
    limits (-90.0 90.0)
           (-45.0 45.0)
  end
  begin
     id 22 
     name lfingers
     direction 1 -4.48961e-011 5.83968e-027   
     length 0.527534   
     axis -3.72598e-015 90 90   XYZ
    dof rx
    limits (0.0 90.0)
  end
  begin
     id 23
     name lthumb
     direction 0.707107 -6.34963e-011 0.707107   
     length 0.757437   
     axis -90 45 -6.68868e-015   XYZ
    dof rx rz
    limits (-45.0 45.0)
           (-45.0 45.0)
  end
  begin
     id 24 
     name rclavicle
     direction -0.902944 0.422599 -0.0781198   
     length 3.54432  
     axis 0 0 0   XYZ 
    dof ry rz
    limits (-10.0 20.0)
           (-20.0 0.0)
  end
  begin
     id 25 
     name rhumerus
     direction -1 -4.48953e-011 -4.75835e-028  
     length 5.09181   
     axis 180 30 90   XYZ
    dof rx ry rz
    limits (-90.0 60.0)
           (-90.0 90.0)
           (-90.0 90.0)
  end
  begin
     id 26 
     name rradius
     direction -1 -4.48986e-011 -3.25889e-027   
     length 3.49865   
     axis 180 30 90   XYZ
    dof rx
    limits (-10.0 170.0)
  end
  begin
     id 27 
     name rwrist
     direction -1 -4.48963e-011 1.45989e-027   
     length 1.74933   
     axis 1.49639e-024 -90 -90   XYZ
    dof ry
    limits (-180.0 0.0)
  end
  begin
     id 28
     name rhand
     direction -1 -4.49003e-011 2.91844e-027   
     length 0.66641   
     axis -1.863e-015 -90 -90   XYZ
    dof rx rz
    limits (-90.0 90.0)
           (-45.0 45.0)
  end
  begin
     id 29
     name rfingers
     direction -1 -4.48973e-011 5.83886e-027   
     length 0.537277   
     axis -3.72598e-015 -90 -90   XYZ
    dof rx
    limits (0.0 90.0)
  end
  begin
     id 30
     name rthumb
     direction -0.707107 -6.34976e-011 0.707107   
     length 0.771425   
     axis -90 -45 6.68868e-015   XYZ
    dof rx rz
    limits (-45.0 45.0)
           (-45.0 45.0)
  end
:hierarchy
  begin
    root lhipjoint rhipjoint lowerback
    lhipjoint lfemur
    lfemur ltibia
    ltibia lfoot
    lfoot ltoes
    rhipjoint rfemur
    rfemur rtibia
    rtibia rfoot
    rfoot rtoes
    lowerback upperback
    upperback thorax
    thorax lowerneck lclavicle rclavicle
    lowerneck upperneck
    upperneck head
    lclavicle lhumerus
    lhumerus lradius
    lradius lwrist
    lwrist lhand lthumb
    lhand lfingers
    rclavicle rhumerus
    rhumerus rradius
    rradius rwrist
    rwrist rhand rthumb
    rhand rfingers
  end

#!OML:ASF H:\LiuWeirdWalks\Patient Classification 1\Patient 1\Session 1\male.ASF
:FULLY-SPECIFIED
:DEGREES
113
root 0.888375 18.1019 -16.2696 4.19255 0.0358595 -16.6924
lowerback 10.6121 -0.233579 -9.02571
upperback 1.13621 -1.63964 -5.52473
thorax -4.68925 -0.683331 -0.503028
lowerneck -18.4848 1.79683 6.34004
upperneck 22.3641 -1.48904 8.14633
head 10.3378 0.841914 1.63624
rclavicle 1.59028e-014 -2.22639e-014
rhumerus -22.184 -29.4784 8.40435
rradius 35.0062
rwrist -3.43874
rhand -18.5181 -2.7732
rfingers 7.12502
rthumb 7.77025 -32.6104
lclavicle 1.59028e-014 -2.22639e-014
lhumerus -31.7843 32.1223 27.0648
lradius 35.5054
lwrist 10.5947
lhand -19.5159 -2.7241
lfingers 7.12502
lthumb 6.80719 27.1465
rfemur 3.32491 -8.10883 28.5588
rtibia 29.6628
rfoot 2.80159 2.63432
rtoes -20.471
lfemur -20.1112 2.67263 2.16217
ltibia 34.2096
lfoot -10.2566 11.5303
ltoes -10.3263
114
root 0.917101 18.1065 -16.227 4.21243 0.00555793 -16.7586
lowerback 10.6182 -0.234224 -9.08696
upperback 1.1518 -1.65058 -5.59742
thorax -4.67628 -0.688922 -0.544488
lowerneck -18.4099 1.78098 6.27812
upperneck 22.3272 -1.54835 8.40729
head 10.3165 0.836999 1.72959
rclavicle 3.18055e-015 -3.49861e-014
rhumerus -22.0816 -29.4913 8.30105
rradius 35.1378
rwrist -3.78605
rhand -18.3354 -2.69216
rfingers 7.12502
rthumb 7.94668 -32.5228
lclavicle 3.18055e-015 -3.49861e-014
lhumerus -32.0037 32.2535 27.0396
lradius 35.4413
lwrist 10.6045
lhand -19.5173 -2.6637
lfingers 7.12502
lthumb 6.80577 27.2069
rfemur 3.15381 -8.09448 28.526
rtibia 30.0982
rfoot 3.29696 2.57904
rtoes -20.2914
lfemur -19.9407 2.63811 2.13675
ltibia 34.1893
lfoot -10.4033 11.6018
ltoes -10.3034
115
root 0.94551 18.1112 -16.185 4.22274 -0.0268822 -16.8083
lowerback 10.629 -0.234097 -9.15376
upperback 1.17349 -1.66112 -5.66946
thorax -4.65929 -0.694455 -0.582242
lowerneck -18.3322 1.7719 6.23476
upperneck 22.264 -1.59445 8.64406
head 10.2846 0.835382 1.81241
rclavicle 1.59028e-014 3.49861e-014
rhumerus -21.9733 -29.5397 8.22588
rradius 35.2647
rwrist -4.25827
rhand -18.0777 -2.55865
rfingers 7.12502
rthumb 8.19539 -32.3797
lclavicle 1.59028e-014 3.49861e-014
lhumerus -32.2208 32.3882 27.0247
lradius 35.367
lwrist 10.6104
lhand -19.5162 -2.59357
lfingers 7.12502
lthumb 6.80686 27.277
rfemur 2.96935 -8.08204 28.4789
rtibia 30.577
rfoot 3.7779 2.49544
rtoes -20.0597
lfemur -19.7579 2.59935 2.09192
ltibia 34.1589
lfoot -10.5423 11.6796
ltoes -10.2873
116
root 0.973661 18.1159 -16.1436 4.22252 -0.0609265 -16.8413
lowerback 10.6484 -0.23322 -9.22481
upperback 1.19878 -1.67196 -5.74143
thorax -4.64315 -0.700105 -0.617504
lowerneck -18.2462 1.76761 6.20819
upperneck 22.177 -1.62973 8.85933
head 10.2421 0.836067 1.8855
rclavicle -2.38542e-015 -1.52667e-013
rhumerus -21.8595 -29.6305 8.18145
rradius 35.3776
rwrist -4.83595
rhand -17.7476 -2.33849
rfingers 7.12502
rthumb 8.51395 -32.1469
lclavicle -2.38542e-015 -1.52667e-013
lhumerus -32.4364 32.5177 27.022
lradius 35.2861
lwrist 10.6172
lhand -19.5157 -2.51263
lfingers 7.12502
lthumb 6.80735 27.3579
rfemur 2.77224 -8.07275 28.4164
rtibia 31.1
rfoot 4.24346 2.38756
rtoes -19.7669
lfemur -19.561 2.55622 2.02723
ltibia 34.117
lfoot -10.6733 11.7641
ltoes -10.2778
117
root 1.00158 18.1205 -16.1027 4.21146 -0.0946169 -16.8591
lowerback 10.6799 -0.23207 -9.29805
upperback 1.22534 -1.68424 -5.81303
thorax -4.63227 -0.706274 -0.650915
lowerneck -18.1489 1.76659 6.19655
upperneck 22.0768 -1.6573 9.05647
head 10.1924 0.838284 1.95013
rclavicle 1.43125e-014 3.49861e-014
rhumerus -21.7405 -29.7679 8.16856
rradius 35.4686
rwrist -5.48455
rhand -17.3563 -2.00815
rfingers 7.12502
rthumb 8.89157 -31.8008
lclavicle 1.43125e-014 3.49861e-014
lhumerus -32.651 32.6356 27.0328
lradius 35.2018
lwrist 10.6324
lhand -19.5194 -2.42511
lfingers 7.12502
lthumb 6.80375 27.4456
rfemur 2.56213 -8.06636 28.3404
rtibia 31.6672
rfoot 4.69345 2.25744
rtoes -19.4029
lfemur -19.3503 2.50704 1.94411
ltibia 34.0635
lfoot -10.7966 11.8559
ltoes -10.2726
118
root 1.02919 18.1249 -16.0625 4.19047 -0.125029 -16.8649
lowerback 10.7257 -0.2315 -9.36954
upperback 1.25144 -1.69911 -5.88351
thorax -4.62973 -0.713449 -0.683666
lowerneck -18.0374 1.76715 6.19305
upperneck 21.9745 -1.68024 9.24329
head 10.139 0.841397 2.00999
rclavicle 3.97569e-015 6.36111e-015
rhumerus -21.6188 -29.9346 8.1823
rradius 35.5368
rwrist -6.1371
rhand -16.9458 -1.58419
rfingers 7.12502
rthumb 9.28765 -31.3596
lclavicle 3.97569e-015 6.36111e-015
lhumerus -32.863 32.7394 27.058
lradius 35.1164
lwrist 10.6611
lhand -19.5282 -2.33524
lfingers 7.12502
lthumb 6.79529 27.5357
rfemur 2.33611 -8.06003 28.2568
rtibia 32.2786
rfoot 5.12734 2.10447
rtoes -18.9627
lfemur -19.1289 2.45075 1.84676
ltibia 33.9991
lfoot -10.9121 11.9541
ltoes -10.2687
119
root 1.05648 18.1289 -16.0232 4.16034 -0.150594 -16.8614
lowerback 10.7845 -0.232089 -9.43671
upperback 1.27833 -1.71673 -5.95177
thorax -4.63353 -0.721823 -0.715983
lowerneck -17.918 1.77062 6.19642
upperneck 21.8789 -1.69838 9.42182
head 10.0865 0.846226 2.06636
rclavicle 0 -3.81667e-014
rhumerus -21.4952 -30.1062 8.21384
rradius 35.5902
rwrist -6.72034
rhand -16.5662 -1.1511
rfingers 7.12502
rthumb 9.65389 -30.9099
lclavicle 0 -3.81667e-014
lhumerus -33.0677 32.8359 27.1
lradius 35.0299
lwrist 10.7014
lhand -19.5409 -2.24865
lfingers 7.12502
lthumb 6.78303 27.6227
rfemur 2.09166 -8.04856 28.1706
rtibia 32.9337
rfoot 5.54474 1.92627
rtoes -18.4455
lfemur -18.899 2.38593 1.73848
ltibia 33.9245
lfoot -11.0204 12.0589
ltoes -10.2605
120
root 1.0834 18.1326 -15.9849 4.12226 -0.170087 -16.8493
lowerback 10.854 -0.234017 -9.49962
upperback 1.30738 -1.73679 -6.01669
thorax -4.64084 -0.731363 -0.746686
lowerneck -17.802 1.77758 6.20241
upperneck 21.7979 -1.71232 9.59417
head 10.0398 0.853109 2.12101
rclavicle -1.43125e-014 -7.95139e-014
rhumerus -21.3701 -30.2482 8.25188
rradius 35.635
rwrist -7.11946
rhand -16.3001 -0.812331
rfingers 7.12502
rthumb 9.91064 -30.559
lclavicle -1.43125e-014 -7.95139e-014
lhumerus -33.2607 32.9304 27.1625
lradius 34.9434
lwrist 10.7485
lhand -19.5549 -2.16745
lfingers 7.12502
lthumb 6.76953 27.7043
rfemur 1.82592 -8.02659 28.085
rtibia 33.632
rfoot 5.94564 1.72028
rtoes -17.8577
lfemur -18.6623 2.31104 1.62025
ltibia 33.8396
lfoot -11.1223 12.1704
ltoes -10.244
121
root 1.10997 18.136 -15.9474 4.07705 -0.182729 -16.8263
lowerback 10.9301 -0.237286 -9.56107
upperback 1.34152 -1.75869 -6.07707
thorax -4.64623 -0.741941 -0.773074
lowerneck -17.7025 1.78875 6.20837
upperneck 21.7375 -1.72228 9.75968
head 10.0035 0.862364 2.1745
rclavicle -1.66979e-014 -2.54444e-014
rhumerus -21.2438 -30.348 8.29524
rradius 35.6802
rwrist -7.32371
rhand -16.1636 -0.618564
rfingers 7.12502
rthumb 10.0423 -30.359
lclavicle -1.66979e-014 -2.54444e-014
lhumerus -33.4371 33.0313 27.2504
lradius 34.8567
lwrist 10.7907
lhand -19.5644 -2.09409
lfingers 7.12502
lthumb 6.76038 27.778
rfemur 1.53753 -7.99155 27.9987
rtibia 34.3718
rfoot 6.33132 1.48732
rtoes -17.2045
lfemur -18.4189 2.22432 1.48966
ltibia 33.7431
lfoot -11.2195 12.2892
ltoes -10.2162
